<?xml version="1.0" standalone="no"?><svg xmlns:xlink="http://www.w3.org/1999/xlink" xmlns="http://www.w3.org/2000/svg" viewBox="0 0 1000 636.3694089908921" preserveAspectRatio="xMaxYMax slice"><g transform="scale(1.3804108654900045)"><rect x="0" y="0" width="724.4285714285714" height="461" fill="#ffffff"/><circle cx="32.925" cy="32.925" r="6.585" fill="#ffffff"/><circle cx="98.785" cy="32.925" r="6.585" fill="#8AAAE5"/><circle cx="164.645" cy="32.925" r="6.585" fill="#ffffff"/><circle cx="230.495" cy="32.925" r="6.585" fill="#8AAAE5"/><circle cx="296.35499999999996" cy="32.925" r="6.585" fill="#8AAAE5"/><circle cx="362.215" cy="32.925" r="6.585" fill="#ffffff"/><circle cx="428.075" cy="32.925" r="6.585" fill="#ffffff"/><circle cx="493.92499999999995" cy="32.925" r="6.585" fill="#ffffff"/><circle cx="559.7850000000001" cy="32.925" r="6.585" fill="#ffffff"/><circle cx="625.645" cy="32.925" r="6.585" fill="#ffffff"/><circle cx="691.495" cy="32.925" r="6.585" fill="#ffffff"/><circle cx="32.925" cy="98.785" r="6.585" fill="#ffffff"/><circle cx="98.785" cy="98.785" r="8.555" fill="#ffffff"/><circle cx="164.645" cy="98.78500000000001" r="10.525" fill="#8AAAE5"/><circle cx="230.495" cy="98.78500000000001" r="12.495" fill="#8AAAE5"/><circle cx="296.36" cy="98.78999999999999" r="14.47" fill="#8AAAE5"/><circle cx="362.22" cy="98.79" r="15.62" fill="#ffffff"/><circle cx="428.07" cy="98.79" r="15.62" fill="#8AAAE5"/><circle cx="493.93" cy="98.78999999999999" r="14.47" fill="#8AAAE5"/><circle cx="559.785" cy="98.78500000000001" r="12.495" fill="#ffffff"/><circle cx="625.645" cy="98.78500000000001" r="10.525" fill="#8AAAE5"/><circle cx="691.495" cy="98.785" r="8.555" fill="#ffffff"/><circle cx="32.925" cy="164.645" r="6.585" fill="#ffffff"/><circle cx="98.78500000000001" cy="164.645" r="10.525" fill="#8AAAE5"/><circle cx="164.64" cy="164.64" r="14.47" fill="#ffffff"/><circle cx="230.5" cy="164.64" r="18.41" fill="#8AAAE5"/><circle cx="296.36" cy="164.64" r="22.35" fill="#ffffff"/><circle cx="362.21" cy="164.64000000000001" r="24.65" fill="#8AAAE5"/><circle cx="428.07" cy="164.64000000000001" r="24.65" fill="#8AAAE5"/><circle cx="493.93" cy="164.64" r="22.35" fill="#ffffff"/><circle cx="559.79" cy="164.64" r="18.41" fill="#8AAAE5"/><circle cx="625.64" cy="164.64" r="14.47" fill="#8AAAE5"/><circle cx="691.495" cy="164.645" r="10.525" fill="#8AAAE5"/><circle cx="32.925" cy="230.495" r="6.585" fill="#8AAAE5"/><circle cx="98.785" cy="230.505" r="12.335" fill="#ffffff"/><circle cx="164.64" cy="230.5" r="18.08" fill="#8AAAE5"/><circle cx="230.5" cy="230.5" r="23.83" fill="#ffffff"/><circle cx="296.35499999999996" cy="230.49499999999998" r="29.575" fill="#8AAAE5"/><circle cx="362.22" cy="230.5" r="32.93" fill="#ffffff"/><circle cx="428.07" cy="230.5" r="32.93" fill="#ffffff"/><circle cx="493.925" cy="230.49499999999998" r="29.575" fill="#ffffff"/><circle cx="559.7900000000001" cy="230.5" r="23.83" fill="#ffffff"/><circle cx="625.64" cy="230.5" r="18.08" fill="#8AAAE5"/><circle cx="691.505" cy="230.505" r="12.335" fill="#8AAAE5"/><circle cx="32.925" cy="296.35499999999996" r="6.585" fill="#8AAAE5"/><circle cx="98.785" cy="296.35499999999996" r="12.335" fill="#ffffff"/><circle cx="164.64" cy="296.35999999999996" r="18.08" fill="#8AAAE5"/><circle cx="230.5" cy="296.35999999999996" r="23.83" fill="#ffffff"/><circle cx="296.35499999999996" cy="296.35499999999996" r="29.575" fill="#ffffff"/><circle cx="362.22" cy="296.36" r="32.93" fill="#ffffff"/><circle cx="428.07" cy="296.36" r="32.93" fill="#8AAAE5"/><circle cx="493.925" cy="296.35499999999996" r="29.575" fill="#ffffff"/><circle cx="559.7900000000001" cy="296.35999999999996" r="23.83" fill="#ffffff"/><circle cx="625.64" cy="296.35999999999996" r="18.08" fill="#8AAAE5"/><circle cx="691.505" cy="296.35499999999996" r="12.335" fill="#ffffff"/><circle cx="32.925" cy="362.215" r="6.585" fill="#8AAAE5"/><circle cx="98.78500000000001" cy="362.215" r="10.525" fill="#ffffff"/><circle cx="164.64" cy="362.22" r="14.47" fill="#8AAAE5"/><circle cx="230.5" cy="362.22" r="18.41" fill="#8AAAE5"/><circle cx="296.36" cy="362.21000000000004" r="22.35" fill="#8AAAE5"/><circle cx="362.21" cy="362.21" r="24.65" fill="#ffffff"/><circle cx="428.07" cy="362.21" r="24.65" fill="#ffffff"/><circle cx="493.93" cy="362.21000000000004" r="22.35" fill="#8AAAE5"/><circle cx="559.79" cy="362.22" r="18.41" fill="#8AAAE5"/><circle cx="625.64" cy="362.22" r="14.47" fill="#ffffff"/><circle cx="691.495" cy="362.215" r="10.525" fill="#ffffff"/><circle cx="32.925" cy="428.075" r="6.585" fill="#8AAAE5"/><circle cx="98.785" cy="428.075" r="8.555" fill="#8AAAE5"/><circle cx="164.645" cy="428.065" r="10.525" fill="#ffffff"/><circle cx="230.495" cy="428.065" r="12.495" fill="#ffffff"/><circle cx="296.36" cy="428.07000000000005" r="14.47" fill="#ffffff"/><circle cx="362.22" cy="428.07" r="15.62" fill="#8AAAE5"/><circle cx="428.07" cy="428.07" r="15.62" fill="#8AAAE5"/><circle cx="493.93" cy="428.07000000000005" r="14.47" fill="#8AAAE5"/><circle cx="559.785" cy="428.065" r="12.495" fill="#8AAAE5"/><circle cx="625.645" cy="428.065" r="10.525" fill="#ffffff"/><circle cx="691.495" cy="428.075" r="8.555" fill="#ffffff"/></g></svg>