<?xml version="1.0" standalone="no"?><svg xmlns:xlink="http://www.w3.org/1999/xlink" xmlns="http://www.w3.org/2000/svg" viewBox="0 0 1000 636.3694089908921" preserveAspectRatio="xMaxYMax slice"><g transform="scale(1.3804108654900045)"><rect x="0" y="0" width="724.4285714285714" height="461" fill="#ffffff"/><rect x="0" y="0" width="65.85714285714286" height="65.85714285714286" fill="#ffffff"/><circle cx="16.465" cy="16.465" r="16.465" fill="#CADCFC"/><circle cx="49.394999999999996" cy="16.465" r="16.465" fill="#CADCFC"/><circle cx="16.465" cy="49.394999999999996" r="16.465" fill="#CADCFC"/><circle cx="49.394999999999996" cy="49.394999999999996" r="16.465" fill="#CADCFC"/><rect x="65.85714285714286" y="0" width="65.85714285714286" height="65.85714285714286" fill="#ffffff"/><circle cx="82.325" cy="16.465" r="16.465" fill="#CADCFC"/><circle cx="115.25500000000001" cy="16.465" r="16.465" fill="#CADCFC"/><circle cx="82.325" cy="49.394999999999996" r="16.465" fill="#00246B"/><circle cx="115.25500000000001" cy="49.394999999999996" r="16.465" fill="#00246B"/><rect x="131.71428571428572" y="0" width="65.85714285714286" height="65.85714285714286" fill="#ffffff"/><circle cx="148.175" cy="16.465" r="16.465" fill="#CADCFC"/><circle cx="181.105" cy="16.465" r="16.465" fill="#00246B"/><circle cx="148.175" cy="49.394999999999996" r="16.465" fill="#CADCFC"/><circle cx="181.105" cy="49.394999999999996" r="16.465" fill="#00246B"/><circle cx="230.5" cy="32.93" r="32.93" fill="#00246B"/><circle cx="296.36" cy="32.93" r="32.93" fill="#00246B"/><rect x="329.28571428571433" y="0" width="65.85714285714286" height="65.85714285714286" fill="#ffffff"/><circle cx="345.755" cy="16.465" r="16.465" fill="#CADCFC"/><circle cx="378.67499999999995" cy="16.465" r="16.465" fill="#00246B"/><circle cx="345.755" cy="49.394999999999996" r="16.465" fill="#CADCFC"/><circle cx="378.67499999999995" cy="49.394999999999996" r="16.465" fill="#00246B"/><circle cx="428.07" cy="32.93" r="32.93" fill="#00246B"/><rect x="461" y="0" width="65.85714285714286" height="65.85714285714286" fill="#ffffff"/><circle cx="477.465" cy="16.465" r="16.465" fill="#CADCFC"/><circle cx="510.395" cy="16.465" r="16.465" fill="#CADCFC"/><circle cx="477.465" cy="49.394999999999996" r="16.465" fill="#CADCFC"/><circle cx="510.395" cy="49.394999999999996" r="16.465" fill="#CADCFC"/><circle cx="559.79" cy="32.93" r="32.93" fill="#CADCFC"/><circle cx="625.64" cy="32.93" r="32.93" fill="#CADCFC"/><rect x="658.5714285714287" y="0" width="65.85714285714286" height="65.85714285714286" fill="#ffffff"/><circle cx="675.0350000000001" cy="16.465" r="16.465" fill="#00246B"/><circle cx="707.965" cy="16.465" r="16.465" fill="#CADCFC"/><circle cx="675.0350000000001" cy="49.394999999999996" r="16.465" fill="#00246B"/><circle cx="707.965" cy="49.394999999999996" r="16.465" fill="#00246B"/><circle cx="32.93" cy="98.78999999999999" r="32.93" fill="#CADCFC"/><rect x="65.85714285714286" y="65.85714285714286" width="65.85714285714286" height="65.85714285714286" fill="#ffffff"/><circle cx="82.325" cy="82.325" r="16.465" fill="#CADCFC"/><circle cx="115.25500000000001" cy="82.325" r="16.465" fill="#CADCFC"/><circle cx="82.325" cy="115.25500000000001" r="16.465" fill="#CADCFC"/><circle cx="115.25500000000001" cy="115.25500000000001" r="16.465" fill="#CADCFC"/><rect x="131.71428571428572" y="65.85714285714286" width="65.85714285714286" height="65.85714285714286" fill="#ffffff"/><circle cx="148.175" cy="82.325" r="16.465" fill="#00246B"/><circle cx="181.105" cy="82.325" r="16.465" fill="#CADCFC"/><circle cx="148.175" cy="115.25500000000001" r="16.465" fill="#CADCFC"/><circle cx="181.105" cy="115.25500000000001" r="16.465" fill="#CADCFC"/><rect x="197.57142857142858" y="65.85714285714286" width="65.85714285714286" height="65.85714285714286" fill="#ffffff"/><circle cx="214.035" cy="82.325" r="16.465" fill="#CADCFC"/><circle cx="246.965" cy="82.325" r="16.465" fill="#CADCFC"/><circle cx="214.035" cy="115.25500000000001" r="16.465" fill="#CADCFC"/><circle cx="246.965" cy="115.25500000000001" r="16.465" fill="#CADCFC"/><rect x="263.42857142857144" y="65.85714285714286" width="65.85714285714286" height="65.85714285714286" fill="#ffffff"/><circle cx="279.895" cy="82.325" r="16.465" fill="#00246B"/><circle cx="312.825" cy="82.325" r="16.465" fill="#CADCFC"/><circle cx="279.895" cy="115.25500000000001" r="16.465" fill="#00246B"/><circle cx="312.825" cy="115.25500000000001" r="16.465" fill="#00246B"/><rect x="329.28571428571433" y="65.85714285714286" width="65.85714285714286" height="65.85714285714286" fill="#ffffff"/><circle cx="345.755" cy="82.325" r="16.465" fill="#00246B"/><circle cx="378.67499999999995" cy="82.325" r="16.465" fill="#00246B"/><circle cx="345.755" cy="115.25500000000001" r="16.465" fill="#CADCFC"/><circle cx="378.67499999999995" cy="115.25500000000001" r="16.465" fill="#00246B"/><circle cx="428.07" cy="98.78999999999999" r="32.93" fill="#00246B"/><circle cx="493.93" cy="98.78999999999999" r="32.93" fill="#CADCFC"/><circle cx="559.79" cy="98.78999999999999" r="32.93" fill="#CADCFC"/><rect x="592.7142857142858" y="65.85714285714286" width="65.85714285714286" height="65.85714285714286" fill="#ffffff"/><circle cx="609.1750000000001" cy="82.325" r="16.465" fill="#00246B"/><circle cx="642.105" cy="82.325" r="16.465" fill="#00246B"/><circle cx="609.1750000000001" cy="115.25500000000001" r="16.465" fill="#00246B"/><circle cx="642.105" cy="115.25500000000001" r="16.465" fill="#00246B"/><rect x="658.5714285714287" y="65.85714285714286" width="65.85714285714286" height="65.85714285714286" fill="#ffffff"/><circle cx="675.0350000000001" cy="82.325" r="16.465" fill="#00246B"/><circle cx="707.965" cy="82.325" r="16.465" fill="#CADCFC"/><circle cx="675.0350000000001" cy="115.25500000000001" r="16.465" fill="#00246B"/><circle cx="707.965" cy="115.25500000000001" r="16.465" fill="#00246B"/><circle cx="32.93" cy="164.64000000000001" r="32.93" fill="#00246B"/><rect x="65.85714285714286" y="131.71428571428572" width="65.85714285714286" height="65.85714285714286" fill="#ffffff"/><circle cx="82.325" cy="148.175" r="16.465" fill="#00246B"/><circle cx="115.25500000000001" cy="148.175" r="16.465" fill="#00246B"/><circle cx="82.325" cy="181.105" r="16.465" fill="#00246B"/><circle cx="115.25500000000001" cy="181.105" r="16.465" fill="#CADCFC"/><circle cx="164.64000000000001" cy="164.64000000000001" r="32.93" fill="#00246B"/><rect x="197.57142857142858" y="131.71428571428572" width="65.85714285714286" height="65.85714285714286" fill="#ffffff"/><circle cx="214.035" cy="148.175" r="16.465" fill="#CADCFC"/><circle cx="246.965" cy="148.175" r="16.465" fill="#00246B"/><circle cx="214.035" cy="181.105" r="16.465" fill="#CADCFC"/><circle cx="246.965" cy="181.105" r="16.465" fill="#00246B"/><rect x="263.42857142857144" y="131.71428571428572" width="65.85714285714286" height="65.85714285714286" fill="#ffffff"/><circle cx="279.895" cy="148.175" r="16.465" fill="#CADCFC"/><circle cx="312.825" cy="148.175" r="16.465" fill="#00246B"/><circle cx="279.895" cy="181.105" r="16.465" fill="#00246B"/><circle cx="312.825" cy="181.105" r="16.465" fill="#CADCFC"/><circle cx="362.22" cy="164.64000000000001" r="32.93" fill="#00246B"/><circle cx="428.07" cy="164.64000000000001" r="32.93" fill="#00246B"/><rect x="461" y="131.71428571428572" width="65.85714285714286" height="65.85714285714286" fill="#ffffff"/><circle cx="477.465" cy="148.175" r="16.465" fill="#CADCFC"/><circle cx="510.395" cy="148.175" r="16.465" fill="#CADCFC"/><circle cx="477.465" cy="181.105" r="16.465" fill="#00246B"/><circle cx="510.395" cy="181.105" r="16.465" fill="#CADCFC"/><rect x="526.8571428571429" y="131.71428571428572" width="65.85714285714286" height="65.85714285714286" fill="#ffffff"/><circle cx="543.325" cy="148.175" r="16.465" fill="#CADCFC"/><circle cx="576.255" cy="148.175" r="16.465" fill="#00246B"/><circle cx="543.325" cy="181.105" r="16.465" fill="#00246B"/><circle cx="576.255" cy="181.105" r="16.465" fill="#CADCFC"/><circle cx="625.64" cy="164.64000000000001" r="32.93" fill="#00246B"/><circle cx="691.5" cy="164.64000000000001" r="32.93" fill="#CADCFC"/><circle cx="32.93" cy="230.5" r="32.93" fill="#00246B"/><circle cx="98.78999999999999" cy="230.5" r="32.93" fill="#00246B"/><rect x="131.71428571428572" y="197.57142857142858" width="65.85714285714286" height="65.85714285714286" fill="#ffffff"/><circle cx="148.175" cy="214.035" r="16.465" fill="#00246B"/><circle cx="181.105" cy="214.035" r="16.465" fill="#CADCFC"/><circle cx="148.175" cy="246.965" r="16.465" fill="#00246B"/><circle cx="181.105" cy="246.965" r="16.465" fill="#CADCFC"/><circle cx="230.5" cy="230.5" r="32.93" fill="#CADCFC"/><circle cx="296.36" cy="230.5" r="32.93" fill="#00246B"/><circle cx="362.22" cy="230.5" r="32.93" fill="#00246B"/><rect x="395.14285714285717" y="197.57142857142858" width="65.85714285714286" height="65.85714285714286" fill="#ffffff"/><circle cx="411.60499999999996" cy="214.035" r="16.465" fill="#CADCFC"/><circle cx="444.53499999999997" cy="214.035" r="16.465" fill="#00246B"/><circle cx="411.60499999999996" cy="246.965" r="16.465" fill="#CADCFC"/><circle cx="444.53499999999997" cy="246.965" r="16.465" fill="#CADCFC"/><rect x="461" y="197.57142857142858" width="65.85714285714286" height="65.85714285714286" fill="#ffffff"/><circle cx="477.465" cy="214.035" r="16.465" fill="#00246B"/><circle cx="510.395" cy="214.035" r="16.465" fill="#00246B"/><circle cx="477.465" cy="246.965" r="16.465" fill="#CADCFC"/><circle cx="510.395" cy="246.965" r="16.465" fill="#00246B"/><rect x="526.8571428571429" y="197.57142857142858" width="65.85714285714286" height="65.85714285714286" fill="#ffffff"/><circle cx="543.325" cy="214.035" r="16.465" fill="#00246B"/><circle cx="576.255" cy="214.035" r="16.465" fill="#00246B"/><circle cx="543.325" cy="246.965" r="16.465" fill="#00246B"/><circle cx="576.255" cy="246.965" r="16.465" fill="#00246B"/><rect x="592.7142857142858" y="197.57142857142858" width="65.85714285714286" height="65.85714285714286" fill="#ffffff"/><circle cx="609.1750000000001" cy="214.035" r="16.465" fill="#CADCFC"/><circle cx="642.105" cy="214.035" r="16.465" fill="#00246B"/><circle cx="609.1750000000001" cy="246.965" r="16.465" fill="#CADCFC"/><circle cx="642.105" cy="246.965" r="16.465" fill="#00246B"/><rect x="658.5714285714287" y="197.57142857142858" width="65.85714285714286" height="65.85714285714286" fill="#ffffff"/><circle cx="675.0350000000001" cy="214.035" r="16.465" fill="#CADCFC"/><circle cx="707.965" cy="214.035" r="16.465" fill="#CADCFC"/><circle cx="675.0350000000001" cy="246.965" r="16.465" fill="#CADCFC"/><circle cx="707.965" cy="246.965" r="16.465" fill="#00246B"/><rect x="0" y="263.42857142857144" width="65.85714285714286" height="65.85714285714286" fill="#ffffff"/><circle cx="16.465" cy="279.895" r="16.465" fill="#00246B"/><circle cx="49.394999999999996" cy="279.895" r="16.465" fill="#CADCFC"/><circle cx="16.465" cy="312.825" r="16.465" fill="#CADCFC"/><circle cx="49.394999999999996" cy="312.825" r="16.465" fill="#CADCFC"/><circle cx="98.78999999999999" cy="296.36" r="32.93" fill="#00246B"/><circle cx="164.64000000000001" cy="296.36" r="32.93" fill="#00246B"/><circle cx="230.5" cy="296.36" r="32.93" fill="#00246B"/><rect x="263.42857142857144" y="263.42857142857144" width="65.85714285714286" height="65.85714285714286" fill="#ffffff"/><circle cx="279.895" cy="279.895" r="16.465" fill="#00246B"/><circle cx="312.825" cy="279.895" r="16.465" fill="#00246B"/><circle cx="279.895" cy="312.825" r="16.465" fill="#CADCFC"/><circle cx="312.825" cy="312.825" r="16.465" fill="#CADCFC"/><rect x="329.28571428571433" y="263.42857142857144" width="65.85714285714286" height="65.85714285714286" fill="#ffffff"/><circle cx="345.755" cy="279.895" r="16.465" fill="#00246B"/><circle cx="378.67499999999995" cy="279.895" r="16.465" fill="#00246B"/><circle cx="345.755" cy="312.825" r="16.465" fill="#CADCFC"/><circle cx="378.67499999999995" cy="312.825" r="16.465" fill="#00246B"/><rect x="395.14285714285717" y="263.42857142857144" width="65.85714285714286" height="65.85714285714286" fill="#ffffff"/><circle cx="411.60499999999996" cy="279.895" r="16.465" fill="#00246B"/><circle cx="444.53499999999997" cy="279.895" r="16.465" fill="#00246B"/><circle cx="411.60499999999996" cy="312.825" r="16.465" fill="#CADCFC"/><circle cx="444.53499999999997" cy="312.825" r="16.465" fill="#00246B"/><circle cx="493.93" cy="296.36" r="32.93" fill="#00246B"/><rect x="526.8571428571429" y="263.42857142857144" width="65.85714285714286" height="65.85714285714286" fill="#ffffff"/><circle cx="543.325" cy="279.895" r="16.465" fill="#CADCFC"/><circle cx="576.255" cy="279.895" r="16.465" fill="#CADCFC"/><circle cx="543.325" cy="312.825" r="16.465" fill="#00246B"/><circle cx="576.255" cy="312.825" r="16.465" fill="#CADCFC"/><circle cx="625.64" cy="296.36" r="32.93" fill="#CADCFC"/><circle cx="691.5" cy="296.36" r="32.93" fill="#CADCFC"/><circle cx="32.93" cy="362.22" r="32.93" fill="#CADCFC"/><rect x="65.85714285714286" y="329.28571428571433" width="65.85714285714286" height="65.85714285714286" fill="#ffffff"/><circle cx="82.325" cy="345.755" r="16.465" fill="#00246B"/><circle cx="115.25500000000001" cy="345.755" r="16.465" fill="#00246B"/><circle cx="82.325" cy="378.67499999999995" r="16.465" fill="#00246B"/><circle cx="115.25500000000001" cy="378.67499999999995" r="16.465" fill="#00246B"/><rect x="131.71428571428572" y="329.28571428571433" width="65.85714285714286" height="65.85714285714286" fill="#ffffff"/><circle cx="148.175" cy="345.755" r="16.465" fill="#00246B"/><circle cx="181.105" cy="345.755" r="16.465" fill="#00246B"/><circle cx="148.175" cy="378.67499999999995" r="16.465" fill="#CADCFC"/><circle cx="181.105" cy="378.67499999999995" r="16.465" fill="#00246B"/><rect x="197.57142857142858" y="329.28571428571433" width="65.85714285714286" height="65.85714285714286" fill="#ffffff"/><circle cx="214.035" cy="345.755" r="16.465" fill="#CADCFC"/><circle cx="246.965" cy="345.755" r="16.465" fill="#CADCFC"/><circle cx="214.035" cy="378.67499999999995" r="16.465" fill="#00246B"/><circle cx="246.965" cy="378.67499999999995" r="16.465" fill="#CADCFC"/><circle cx="296.36" cy="362.22" r="32.93" fill="#00246B"/><rect x="329.28571428571433" y="329.28571428571433" width="65.85714285714286" height="65.85714285714286" fill="#ffffff"/><circle cx="345.755" cy="345.755" r="16.465" fill="#CADCFC"/><circle cx="378.67499999999995" cy="345.755" r="16.465" fill="#CADCFC"/><circle cx="345.755" cy="378.67499999999995" r="16.465" fill="#00246B"/><circle cx="378.67499999999995" cy="378.67499999999995" r="16.465" fill="#CADCFC"/><rect x="395.14285714285717" y="329.28571428571433" width="65.85714285714286" height="65.85714285714286" fill="#ffffff"/><circle cx="411.60499999999996" cy="345.755" r="16.465" fill="#00246B"/><circle cx="444.53499999999997" cy="345.755" r="16.465" fill="#CADCFC"/><circle cx="411.60499999999996" cy="378.67499999999995" r="16.465" fill="#CADCFC"/><circle cx="444.53499999999997" cy="378.67499999999995" r="16.465" fill="#CADCFC"/><circle cx="493.93" cy="362.22" r="32.93" fill="#00246B"/><circle cx="559.79" cy="362.22" r="32.93" fill="#00246B"/><circle cx="625.64" cy="362.22" r="32.93" fill="#00246B"/><circle cx="691.5" cy="362.22" r="32.93" fill="#CADCFC"/><rect x="0" y="395.14285714285717" width="65.85714285714286" height="65.85714285714286" fill="#ffffff"/><circle cx="16.465" cy="411.60499999999996" r="16.465" fill="#CADCFC"/><circle cx="49.394999999999996" cy="411.60499999999996" r="16.465" fill="#00246B"/><circle cx="16.465" cy="444.53499999999997" r="16.465" fill="#00246B"/><circle cx="49.394999999999996" cy="444.53499999999997" r="16.465" fill="#CADCFC"/><rect x="65.85714285714286" y="395.14285714285717" width="65.85714285714286" height="65.85714285714286" fill="#ffffff"/><circle cx="82.325" cy="411.60499999999996" r="16.465" fill="#CADCFC"/><circle cx="115.25500000000001" cy="411.60499999999996" r="16.465" fill="#00246B"/><circle cx="82.325" cy="444.53499999999997" r="16.465" fill="#CADCFC"/><circle cx="115.25500000000001" cy="444.53499999999997" r="16.465" fill="#CADCFC"/><circle cx="164.64000000000001" cy="428.07" r="32.93" fill="#CADCFC"/><rect x="197.57142857142858" y="395.14285714285717" width="65.85714285714286" height="65.85714285714286" fill="#ffffff"/><circle cx="214.035" cy="411.60499999999996" r="16.465" fill="#CADCFC"/><circle cx="246.965" cy="411.60499999999996" r="16.465" fill="#00246B"/><circle cx="214.035" cy="444.53499999999997" r="16.465" fill="#00246B"/><circle cx="246.965" cy="444.53499999999997" r="16.465" fill="#00246B"/><circle cx="296.36" cy="428.07" r="32.93" fill="#CADCFC"/><circle cx="362.22" cy="428.07" r="32.93" fill="#00246B"/><circle cx="428.07" cy="428.07" r="32.93" fill="#00246B"/><rect x="461" y="395.14285714285717" width="65.85714285714286" height="65.85714285714286" fill="#ffffff"/><circle cx="477.465" cy="411.60499999999996" r="16.465" fill="#00246B"/><circle cx="510.395" cy="411.60499999999996" r="16.465" fill="#CADCFC"/><circle cx="477.465" cy="444.53499999999997" r="16.465" fill="#CADCFC"/><circle cx="510.395" cy="444.53499999999997" r="16.465" fill="#00246B"/><rect x="526.8571428571429" y="395.14285714285717" width="65.85714285714286" height="65.85714285714286" fill="#ffffff"/><circle cx="543.325" cy="411.60499999999996" r="16.465" fill="#00246B"/><circle cx="576.255" cy="411.60499999999996" r="16.465" fill="#CADCFC"/><circle cx="543.325" cy="444.53499999999997" r="16.465" fill="#CADCFC"/><circle cx="576.255" cy="444.53499999999997" r="16.465" fill="#00246B"/><circle cx="625.64" cy="428.07" r="32.93" fill="#CADCFC"/><circle cx="691.5" cy="428.07" r="32.93" fill="#CADCFC"/></g></svg>