<?xml version="1.0" standalone="no"?><svg xmlns:xlink="http://www.w3.org/1999/xlink" xmlns="http://www.w3.org/2000/svg" viewBox="0 0 1000 636.3694089908921" preserveAspectRatio="xMaxYMax slice"><g transform="scale(1.3804108654900045)"><rect x="0" y="0" width="724.4285714285714" height="461" fill="#ffffff"/><rect x="0" y="0" width="65.85714285714286" height="65.85714285714286" fill="#ffffff"/><rect x="0" y="0" width="32.93" height="32.93" fill="#183FE1"/><path d="M 0 32.93 A 32.93 32.93 0 0 1  32.93 0 L 32.93 32.93L0 32.93" fill="#FF3565"/><rect x="32.93" y="0" width="32.93" height="32.93" fill="#183FE1"/><path d="M 32.93 0 A 32.93 32.93 0 0 1 65.86 32.93 L 32.93 32.93L32.93 0" fill="#FF3565"/><rect x="0" y="32.93" width="32.93" height="32.93" fill="#FF3565"/><path d="M 0 32.93 A 32.93 32.93 0 0 0 32.93 65.86 L 32.93 32.93L0 32.93" fill="#FF3565"/><rect x="32.93" y="32.93" width="32.93" height="32.93" fill="#FF3565"/><path d="M 32.93 65.86 A 32.93 32.93 0 0 0 65.86 32.93 L 32.93 32.93L32.93 65.86" fill="#FF3565"/><rect x="65.85714285714286" y="0" width="65.85714285714286" height="65.85714285714286" fill="#ffffff"/><rect x="65.86" y="0" width="32.93" height="32.93" fill="#183FE1"/><polygon points="98.78999999999999,0 98.78999999999999,32.93 65.86,32.93" fill="#183FE1"/><rect x="98.79" y="0" width="32.93" height="32.93" fill="#FF3565"/><polygon points="98.79,0 131.72,0 98.79,32.93" fill="#183FE1"/><rect x="65.86" y="32.93" width="32.93" height="32.93" fill="#FF3565"/><polygon points="65.86,32.93 98.78999999999999,32.93 98.78999999999999,65.86" fill="#FF3565"/><rect x="98.79" y="32.93" width="32.93" height="32.93" fill="#FF3565"/><polygon points="98.79,32.93 131.72,65.86 98.79,65.86" fill="#FF3565"/><rect x="131.71428571428572" y="0" width="65.85714285714286" height="65.85714285714286" fill="#ffffff"/><rect x="131.71" y="0" width="32.93" height="32.93" fill="#FF3565"/><polygon points="164.64000000000001,0 164.64000000000001,32.93 131.71,32.93" fill="#183FE1"/><rect x="164.64" y="0" width="32.93" height="32.93" fill="#183FE1"/><polygon points="164.64,0 197.57,32.93 164.64,32.93" fill="#FF3565"/><rect x="131.71" y="32.93" width="32.93" height="32.93" fill="#183FE1"/><polygon points="131.71,32.93 164.64000000000001,32.93 164.64000000000001,65.86" fill="#183FE1"/><rect x="164.64" y="32.93" width="32.93" height="32.93" fill="#FF3565"/><polygon points="164.64,32.93 197.57,32.93 164.64,65.86" fill="#183FE1"/><rect x="197.57142857142858" y="0" width="65.85714285714286" height="65.85714285714286" fill="#ffffff"/><rect x="197.57" y="0" width="32.93" height="32.93" fill="#183FE1"/><polygon points="230.5,0 230.5,32.93 197.57,32.93" fill="#FF3565"/><rect x="230.5" y="0" width="32.93" height="32.93" fill="#183FE1"/><polygon points="230.5,0 263.43,0 230.5,32.93" fill="#FF3565"/><rect x="197.57" y="32.93" width="32.93" height="32.93" fill="#183FE1"/><polygon points="197.57,32.93 230.5,32.93 230.5,65.86" fill="#183FE1"/><rect x="230.5" y="32.93" width="32.93" height="32.93" fill="#FF3565"/><polygon points="230.5,32.93 263.43,65.86 230.5,65.86" fill="#FF3565"/><rect x="263.42857142857144" y="0" width="65.85714285714286" height="65.85714285714286" fill="#ffffff"/><rect x="263.43" y="0" width="32.93" height="32.93" fill="#FF3565"/><path d="M 263.43 0 A 32.93 32.93 0 0 1 296.36 32.93 L 263.43 32.93L263.43 0" fill="#183FE1"/><rect x="296.36" y="0" width="32.93" height="32.93" fill="#FF3565"/><path d="M 296.36 32.93 A 32.93 32.93 0 0 1  329.29 0 L 329.29 32.93L296.36 32.93" fill="#183FE1"/><rect x="263.43" y="32.93" width="32.93" height="32.93" fill="#FF3565"/><path d="M 263.43 65.86 A 32.93 32.93 0 0 0 296.36 32.93 L 263.43 32.93L263.43 65.86" fill="#183FE1"/><rect x="296.36" y="32.93" width="32.93" height="32.93" fill="#183FE1"/><path d="M 296.36 32.93 A 32.93 32.93 0 0 0 329.29 65.86 L 329.29 32.93L296.36 32.93" fill="#183FE1"/><rect x="329.29" y="0" width="65.86" height="65.86" fill="#183FE1"/><path d="M 329.29 0 A 65.86 65.86 0 0 1  395.15000000000003 65.86 L 329.29 0 A 65.86 65.86 0 0 0 395.15000000000003 65.86" fill="#FF3565"/><rect x="395.14285714285717" y="0" width="65.85714285714286" height="65.85714285714286" fill="#ffffff"/><rect x="395.14" y="0" width="32.93" height="32.93" fill="#FF3565"/><circle cx="411.60499999999996" cy="16.465" r="16.465" fill="#FF3565"/><rect x="428.07" y="0" width="32.93" height="32.93" fill="#FF3565"/><rect x="428.07" y="0" width="32.93" height="32.93" fill="#FF3565"/><rect x="395.14" y="32.93" width="32.93" height="32.93" fill="#183FE1"/><circle cx="411.60499999999996" cy="49.394999999999996" r="16.465" fill="#183FE1"/><rect x="428.07" y="32.93" width="32.93" height="32.93" fill="#FF3565"/><rect x="428.07" y="32.93" width="32.93" height="32.93" fill="#183FE1"/><rect x="461" y="0" width="65.86" height="65.86" fill="#FF3565"/><rect x="461" y="0" width="65.86" height="65.86" fill="#FF3565"/><rect x="526.86" y="0" width="65.86" height="65.86" fill="#183FE1"/><rect x="526.86" y="0" width="65.86" height="65.86" fill="#FF3565"/><rect x="592.7142857142858" y="0" width="65.85714285714286" height="65.85714285714286" fill="#ffffff"/><rect x="592.71" y="0" width="32.93" height="32.93" fill="#183FE1"/><path d="M 592.71 0 A 32.93 32.93 0 0 1 625.64 32.93 L 592.71 32.93L592.71 0" fill="#FF3565"/><rect x="625.64" y="0" width="32.93" height="32.93" fill="#FF3565"/><path d="M 625.64 32.93 A 32.93 32.93 0 0 1  658.5699999999999 0 L 658.5699999999999 32.93L625.64 32.93" fill="#FF3565"/><rect x="592.71" y="32.93" width="32.93" height="32.93" fill="#183FE1"/><path d="M 592.71 65.86 A 32.93 32.93 0 0 0 625.64 32.93 L 592.71 32.93L592.71 65.86" fill="#FF3565"/><rect x="625.64" y="32.93" width="32.93" height="32.93" fill="#FF3565"/><path d="M 625.64 32.93 A 32.93 32.93 0 0 0 658.5699999999999 65.86 L 658.5699999999999 32.93L625.64 32.93" fill="#183FE1"/><rect x="658.57" y="0" width="65.86" height="65.86" fill="#183FE1"/><polygon points="658.57,0 724.4300000000001,0 724.4300000000001,65.86" fill="#FF3565"/><rect x="0" y="65.86" width="65.86" height="65.86" fill="#FF3565"/><path d="M 0 131.72 A 65.86 65.86 0 0 1  65.86 65.86 L 0 131.72 A 65.86 65.86 0 0 0 65.86 65.86" fill="#FF3565"/><rect x="65.85714285714286" y="65.85714285714286" width="65.85714285714286" height="65.85714285714286" fill="#ffffff"/><rect x="65.86" y="65.86" width="32.93" height="32.93" fill="#FF3565"/><path d="M 65.86 98.78999999999999 A 32.93 32.93 0 0 1  98.78999999999999 65.86 L 98.78999999999999 98.78999999999999L65.86 98.78999999999999" fill="#183FE1"/><rect x="98.79" y="65.86" width="32.93" height="32.93" fill="#FF3565"/><path d="M 98.79 65.86 A 32.93 32.93 0 0 1 131.72 98.78999999999999 L 98.79 98.78999999999999L98.79 65.86" fill="#183FE1"/><rect x="65.86" y="98.79" width="32.93" height="32.93" fill="#FF3565"/><path d="M 65.86 98.79 A 32.93 32.93 0 0 0 98.78999999999999 131.72 L 98.78999999999999 98.79L65.86 98.79" fill="#183FE1"/><rect x="98.79" y="98.79" width="32.93" height="32.93" fill="#FF3565"/><path d="M 98.79 131.72 A 32.93 32.93 0 0 0 131.72 98.79 L 98.79 98.79L98.79 131.72" fill="#FF3565"/><rect x="131.71428571428572" y="65.85714285714286" width="65.85714285714286" height="65.85714285714286" fill="#ffffff"/><rect x="131.71" y="65.86" width="32.93" height="32.93" fill="#FF3565"/><circle cx="148.175" cy="82.325" r="16.465" fill="#183FE1"/><rect x="164.64" y="65.86" width="32.93" height="32.93" fill="#FF3565"/><rect x="164.64" y="65.86" width="32.93" height="32.93" fill="#183FE1"/><rect x="131.71" y="98.79" width="32.93" height="32.93" fill="#183FE1"/><circle cx="148.175" cy="115.25500000000001" r="16.465" fill="#FF3565"/><rect x="164.64" y="98.79" width="32.93" height="32.93" fill="#183FE1"/><rect x="164.64" y="98.79" width="32.93" height="32.93" fill="#FF3565"/><rect x="197.57" y="65.86" width="65.86" height="65.86" fill="#183FE1"/><path d="M 197.57 65.86 A 65.86 65.86 0 0 0 263.43 131.72 L 263.43 65.86L197.57 65.86" fill="#183FE1"/><rect x="263.43" y="65.86" width="65.86" height="65.86" fill="#FF3565"/><path d="M 263.43 65.86 A 65.86 65.86 0 0 1  329.29 131.72 L 263.43 65.86 A 65.86 65.86 0 0 0 329.29 131.72" fill="#183FE1"/><rect x="329.28571428571433" y="65.85714285714286" width="65.85714285714286" height="65.85714285714286" fill="#ffffff"/><rect x="329.29" y="65.86" width="32.93" height="32.93" fill="#FF3565"/><polygon points="362.22,65.86 362.22,98.78999999999999 329.29,98.78999999999999" fill="#183FE1"/><rect x="362.21" y="65.86" width="32.93" height="32.93" fill="#FF3565"/><polygon points="362.21,65.86 395.14,65.86 362.21,98.78999999999999" fill="#FF3565"/><rect x="329.29" y="98.79" width="32.93" height="32.93" fill="#183FE1"/><polygon points="329.29,98.79 362.22,98.79 362.22,131.72" fill="#FF3565"/><rect x="362.21" y="98.79" width="32.93" height="32.93" fill="#183FE1"/><polygon points="362.21,98.79 395.14,131.72 362.21,131.72" fill="#183FE1"/><rect x="395.14" y="65.86" width="65.86" height="65.86" fill="#183FE1"/><path d="M 395.14 65.86 A 65.86 65.86 0 0 1  461 131.72 L 395.14 65.86 A 65.86 65.86 0 0 0 461 131.72" fill="#183FE1"/><rect x="461" y="65.86" width="65.86" height="65.86" fill="#FF3565"/><path d="M 461 65.86 A 65.86 65.86 0 0 1  526.86 131.72 L 461 65.86 A 65.86 65.86 0 0 0 526.86 131.72" fill="#FF3565"/><rect x="526.8571428571429" y="65.85714285714286" width="65.85714285714286" height="65.85714285714286" fill="#ffffff"/><rect x="526.86" y="65.86" width="32.93" height="32.93" fill="#183FE1"/><polygon points="559.79,65.86 559.79,98.78999999999999 526.86,98.78999999999999" fill="#FF3565"/><rect x="559.79" y="65.86" width="32.93" height="32.93" fill="#183FE1"/><polygon points="559.79,65.86 592.7199999999999,98.78999999999999 559.79,98.78999999999999" fill="#183FE1"/><rect x="526.86" y="98.79" width="32.93" height="32.93" fill="#183FE1"/><polygon points="526.86,98.79 559.79,98.79 559.79,131.72" fill="#183FE1"/><rect x="559.79" y="98.79" width="32.93" height="32.93" fill="#FF3565"/><polygon points="559.79,98.79 592.7199999999999,98.79 559.79,131.72" fill="#183FE1"/><rect x="592.71" y="65.86" width="65.86" height="65.86" fill="#FF3565"/><path d="M 592.71 65.86 A 65.86 65.86 0 0 0 658.57 131.72 L 658.57 65.86L592.71 65.86" fill="#FF3565"/><rect x="658.5714285714287" y="65.85714285714286" width="65.85714285714286" height="65.85714285714286" fill="#ffffff"/><rect x="658.57" y="65.86" width="32.93" height="32.93" fill="#FF3565"/><path d="M 658.57 65.86 A 32.93 32.93 0 0 0 691.5 98.78999999999999 L 691.5 65.86L658.57 65.86" fill="#FF3565"/><rect x="691.5" y="65.86" width="32.93" height="32.93" fill="#FF3565"/><path d="M 691.5 98.78999999999999 A 32.93 32.93 0 0 0 724.43 65.86 L 691.5 65.86L691.5 98.78999999999999" fill="#FF3565"/><rect x="658.57" y="98.79" width="32.93" height="32.93" fill="#FF3565"/><path d="M 658.57 131.72 A 32.93 32.93 0 0 1  691.5 98.79 L 691.5 131.72L658.57 131.72" fill="#FF3565"/><rect x="691.5" y="98.79" width="32.93" height="32.93" fill="#183FE1"/><path d="M 691.5 98.79 A 32.93 32.93 0 0 1 724.43 131.72 L 691.5 131.72L691.5 98.79" fill="#FF3565"/><rect x="0" y="131.71" width="65.86" height="65.86" fill="#FF3565"/><polygon points="0,131.71 65.86,131.71 65.86,197.57" fill="#FF3565"/><rect x="65.86" y="131.71" width="65.86" height="65.86" fill="#FF3565"/><polygon points="65.86,131.71 131.72,131.71 65.86,197.57" fill="#FF3565"/><rect x="131.71428571428572" y="131.71428571428572" width="65.85714285714286" height="65.85714285714286" fill="#ffffff"/><rect x="131.71" y="131.71" width="32.93" height="32.93" fill="#FF3565"/><path d="M 131.71 131.71 A 32.93 32.93 0 0 0 164.64000000000001 164.64000000000001 L 164.64000000000001 131.71L131.71 131.71" fill="#183FE1"/><rect x="164.64" y="131.71" width="32.93" height="32.93" fill="#FF3565"/><path d="M 164.64 164.64000000000001 A 32.93 32.93 0 0 0 197.57 131.71 L 164.64 131.71L164.64 164.64000000000001" fill="#183FE1"/><rect x="131.71" y="164.64" width="32.93" height="32.93" fill="#FF3565"/><path d="M 131.71 197.57 A 32.93 32.93 0 0 1  164.64000000000001 164.64 L 164.64000000000001 197.57L131.71 197.57" fill="#183FE1"/><rect x="164.64" y="164.64" width="32.93" height="32.93" fill="#FF3565"/><path d="M 164.64 164.64 A 32.93 32.93 0 0 1 197.57 197.57 L 164.64 197.57L164.64 164.64" fill="#183FE1"/><rect x="197.57142857142858" y="131.71428571428572" width="65.85714285714286" height="65.85714285714286" fill="#ffffff"/><rect x="197.57" y="131.71" width="32.93" height="32.93" fill="#183FE1"/><path d="M 197.57 131.71 A 32.93 32.93 0 0 0 230.5 164.64000000000001 L 230.5 131.71L197.57 131.71" fill="#183FE1"/><rect x="230.5" y="131.71" width="32.93" height="32.93" fill="#FF3565"/><path d="M 230.5 164.64000000000001 A 32.93 32.93 0 0 0 263.43 131.71 L 230.5 131.71L230.5 164.64000000000001" fill="#183FE1"/><rect x="197.57" y="164.64" width="32.93" height="32.93" fill="#183FE1"/><path d="M 197.57 197.57 A 32.93 32.93 0 0 1  230.5 164.64 L 230.5 197.57L197.57 197.57" fill="#183FE1"/><rect x="230.5" y="164.64" width="32.93" height="32.93" fill="#183FE1"/><path d="M 230.5 164.64 A 32.93 32.93 0 0 1 263.43 197.57 L 230.5 197.57L230.5 164.64" fill="#183FE1"/><rect x="263.43" y="131.71" width="65.86" height="65.86" fill="#FF3565"/><path d="M 263.43 131.71 A 65.86 65.86 0 0 0 329.29 197.57 L 329.29 131.71L263.43 131.71" fill="#FF3565"/><rect x="329.28571428571433" y="131.71428571428572" width="65.85714285714286" height="65.85714285714286" fill="#ffffff"/><rect x="329.29" y="131.71" width="32.93" height="32.93" fill="#183FE1"/><circle cx="345.755" cy="148.175" r="16.465" fill="#FF3565"/><rect x="362.21" y="131.71" width="32.93" height="32.93" fill="#FF3565"/><rect x="362.21" y="131.71" width="32.93" height="32.93" fill="#FF3565"/><rect x="329.29" y="164.64" width="32.93" height="32.93" fill="#FF3565"/><circle cx="345.755" cy="181.105" r="16.465" fill="#183FE1"/><rect x="362.21" y="164.64" width="32.93" height="32.93" fill="#FF3565"/><rect x="362.21" y="164.64" width="32.93" height="32.93" fill="#FF3565"/><rect x="395.14" y="131.71" width="65.86" height="65.86" fill="#FF3565"/><rect x="395.14" y="131.71" width="65.86" height="65.86" fill="#FF3565"/><rect x="461" y="131.71428571428572" width="65.85714285714286" height="65.85714285714286" fill="#ffffff"/><rect x="461" y="131.71" width="32.93" height="32.93" fill="#FF3565"/><path d="M 461 164.64000000000001 A 32.93 32.93 0 0 0 493.93 131.71 L 461 131.71L461 164.64000000000001" fill="#183FE1"/><rect x="493.93" y="131.71" width="32.93" height="32.93" fill="#183FE1"/><path d="M 493.93 131.71 A 32.93 32.93 0 0 0 526.86 164.64000000000001 L 526.86 131.71L493.93 131.71" fill="#183FE1"/><rect x="461" y="164.64" width="32.93" height="32.93" fill="#183FE1"/><path d="M 461 164.64 A 32.93 32.93 0 0 1 493.93 197.57 L 461 197.57L461 164.64" fill="#FF3565"/><rect x="493.93" y="164.64" width="32.93" height="32.93" fill="#183FE1"/><path d="M 493.93 197.57 A 32.93 32.93 0 0 1  526.86 164.64 L 526.86 197.57L493.93 197.57" fill="#FF3565"/><rect x="526.8571428571429" y="131.71428571428572" width="65.85714285714286" height="65.85714285714286" fill="#ffffff"/><rect x="526.86" y="131.71" width="32.93" height="32.93" fill="#183FE1"/><path d="M 526.86 164.64000000000001 A 32.93 32.93 0 0 0 559.79 131.71 L 526.86 131.71L526.86 164.64000000000001" fill="#183FE1"/><rect x="559.79" y="131.71" width="32.93" height="32.93" fill="#FF3565"/><path d="M 559.79 131.71 A 32.93 32.93 0 0 0 592.7199999999999 164.64000000000001 L 592.7199999999999 131.71L559.79 131.71" fill="#183FE1"/><rect x="526.86" y="164.64" width="32.93" height="32.93" fill="#FF3565"/><path d="M 526.86 164.64 A 32.93 32.93 0 0 1 559.79 197.57 L 526.86 197.57L526.86 164.64" fill="#FF3565"/><rect x="559.79" y="164.64" width="32.93" height="32.93" fill="#FF3565"/><path d="M 559.79 197.57 A 32.93 32.93 0 0 1  592.7199999999999 164.64 L 592.7199999999999 197.57L559.79 197.57" fill="#FF3565"/><rect x="592.7142857142858" y="131.71428571428572" width="65.85714285714286" height="65.85714285714286" fill="#ffffff"/><rect x="592.71" y="131.71" width="32.93" height="32.93" fill="#183FE1"/><path d="M 592.71 164.64000000000001 A 32.93 32.93 0 0 0 625.64 131.71 L 592.71 131.71L592.71 164.64000000000001" fill="#183FE1"/><rect x="625.64" y="131.71" width="32.93" height="32.93" fill="#FF3565"/><path d="M 625.64 131.71 A 32.93 32.93 0 0 0 658.5699999999999 164.64000000000001 L 658.5699999999999 131.71L625.64 131.71" fill="#FF3565"/><rect x="592.71" y="164.64" width="32.93" height="32.93" fill="#183FE1"/><path d="M 592.71 164.64 A 32.93 32.93 0 0 1 625.64 197.57 L 592.71 197.57L592.71 164.64" fill="#183FE1"/><rect x="625.64" y="164.64" width="32.93" height="32.93" fill="#183FE1"/><path d="M 625.64 197.57 A 32.93 32.93 0 0 1  658.5699999999999 164.64 L 658.5699999999999 197.57L625.64 197.57" fill="#FF3565"/><rect x="658.5714285714287" y="131.71428571428572" width="65.85714285714286" height="65.85714285714286" fill="#ffffff"/><rect x="658.57" y="131.71" width="32.93" height="32.93" fill="#183FE1"/><path d="M 658.57 131.71 A 32.93 32.93 0 0 1 691.5 164.64000000000001 L 658.57 164.64000000000001L658.57 131.71" fill="#FF3565"/><rect x="691.5" y="131.71" width="32.93" height="32.93" fill="#FF3565"/><path d="M 691.5 164.64000000000001 A 32.93 32.93 0 0 1  724.43 131.71 L 724.43 164.64000000000001L691.5 164.64000000000001" fill="#183FE1"/><rect x="658.57" y="164.64" width="32.93" height="32.93" fill="#183FE1"/><path d="M 658.57 197.57 A 32.93 32.93 0 0 0 691.5 164.64 L 658.57 164.64L658.57 197.57" fill="#183FE1"/><rect x="691.5" y="164.64" width="32.93" height="32.93" fill="#FF3565"/><path d="M 691.5 164.64 A 32.93 32.93 0 0 0 724.43 197.57 L 724.43 164.64L691.5 164.64" fill="#183FE1"/><rect x="0" y="197.57" width="65.86" height="65.86" fill="#FF3565"/><rect x="0" y="197.57" width="65.86" height="65.86" fill="#183FE1"/><rect x="65.85714285714286" y="197.57142857142858" width="65.85714285714286" height="65.85714285714286" fill="#ffffff"/><rect x="65.86" y="197.57" width="32.93" height="32.93" fill="#183FE1"/><polygon points="98.78999999999999,197.57 98.78999999999999,230.5 65.86,230.5" fill="#183FE1"/><rect x="98.79" y="197.57" width="32.93" height="32.93" fill="#183FE1"/><polygon points="98.79,197.57 131.72,230.5 98.79,230.5" fill="#183FE1"/><rect x="65.86" y="230.5" width="32.93" height="32.93" fill="#183FE1"/><polygon points="65.86,230.5 98.78999999999999,230.5 65.86,263.43" fill="#183FE1"/><rect x="98.79" y="230.5" width="32.93" height="32.93" fill="#FF3565"/><polygon points="98.79,230.5 131.72,230.5 131.72,263.43" fill="#183FE1"/><rect x="131.71" y="197.57" width="65.86" height="65.86" fill="#183FE1"/><path d="M 131.71 197.57 A 65.86 65.86 0 0 1  197.57 263.43 L 131.71 197.57 A 65.86 65.86 0 0 0 197.57 263.43" fill="#183FE1"/><rect x="197.57" y="197.57" width="65.86" height="65.86" fill="#FF3565"/><rect x="197.57" y="197.57" width="65.86" height="65.86" fill="#183FE1"/><rect x="263.42857142857144" y="197.57142857142858" width="65.85714285714286" height="65.85714285714286" fill="#ffffff"/><rect x="263.43" y="197.57" width="32.93" height="32.93" fill="#FF3565"/><path d="M 263.43 197.57 A 32.93 32.93 0 0 1 296.36 230.5 L 263.43 230.5L263.43 197.57" fill="#FF3565"/><rect x="296.36" y="197.57" width="32.93" height="32.93" fill="#183FE1"/><path d="M 296.36 230.5 A 32.93 32.93 0 0 1  329.29 197.57 L 329.29 230.5L296.36 230.5" fill="#183FE1"/><rect x="263.43" y="230.5" width="32.93" height="32.93" fill="#183FE1"/><path d="M 263.43 263.43 A 32.93 32.93 0 0 0 296.36 230.5 L 263.43 230.5L263.43 263.43" fill="#FF3565"/><rect x="296.36" y="230.5" width="32.93" height="32.93" fill="#183FE1"/><path d="M 296.36 230.5 A 32.93 32.93 0 0 0 329.29 263.43 L 329.29 230.5L296.36 230.5" fill="#FF3565"/><rect x="329.29" y="197.57" width="65.86" height="65.86" fill="#FF3565"/><polygon points="329.29,197.57 395.15000000000003,197.57 329.29,263.43" fill="#FF3565"/><rect x="395.14" y="197.57" width="65.86" height="65.86" fill="#183FE1"/><polygon points="395.14,197.57 461,197.57 461,263.43" fill="#183FE1"/><rect x="461" y="197.57" width="65.86" height="65.86" fill="#FF3565"/><rect x="461" y="197.57" width="65.86" height="65.86" fill="#FF3565"/><rect x="526.8571428571429" y="197.57142857142858" width="65.85714285714286" height="65.85714285714286" fill="#ffffff"/><rect x="526.86" y="197.57" width="32.93" height="32.93" fill="#183FE1"/><path d="M 526.86 230.5 A 32.93 32.93 0 0 1 559.79 197.57 L 559.79 205.80249999999998 A 24.697499999999998 24.697499999999998 0 0 0 535.0925 230.5" fill="#183FE1"/><rect x="559.79" y="197.57" width="32.93" height="32.93" fill="#183FE1"/><path d="M 559.79 197.57 A 32.93 32.93 0 0 1 592.7199999999999 230.5 L 584.4875 230.5 A 24.697499999999998 24.697499999999998 0 0 0 559.79 205.80249999999998" fill="#FF3565"/><rect x="526.86" y="230.5" width="32.93" height="32.93" fill="#FF3565"/><path d="M 526.86 230.5 A 32.93 32.93 0 0 0 559.79 263.43 L 559.79 255.1975 A 24.697499999999998 24.697499999999998 0 0 1 535.0925 230.5" fill="#FF3565"/><rect x="559.79" y="230.5" width="32.93" height="32.93" fill="#FF3565"/><path d="M 559.79 263.43 A 32.93 32.93 0 0 0 592.7199999999999 230.5 L 584.4875 230.5 A 24.697499999999998 24.697499999999998 0 0 1 559.79 255.1975" fill="#FF3565"/><rect x="592.71" y="197.57" width="65.86" height="65.86" fill="#183FE1"/><path d="M 592.71 197.57 A 65.86 65.86 0 0 1  658.57 263.43 L 592.71 197.57 A 65.86 65.86 0 0 0 658.57 263.43" fill="#FF3565"/><rect x="658.5714285714287" y="197.57142857142858" width="65.85714285714286" height="65.85714285714286" fill="#ffffff"/><rect x="658.57" y="197.57" width="32.93" height="32.93" fill="#183FE1"/><path d="M 658.57 197.57 A 32.93 32.93 0 0 0 691.5 230.5 L 691.5 197.57L658.57 197.57" fill="#FF3565"/><rect x="691.5" y="197.57" width="32.93" height="32.93" fill="#FF3565"/><path d="M 691.5 230.5 A 32.93 32.93 0 0 0 724.43 197.57 L 691.5 197.57L691.5 230.5" fill="#FF3565"/><rect x="658.57" y="230.5" width="32.93" height="32.93" fill="#183FE1"/><path d="M 658.57 263.43 A 32.93 32.93 0 0 1  691.5 230.5 L 691.5 263.43L658.57 263.43" fill="#FF3565"/><rect x="691.5" y="230.5" width="32.93" height="32.93" fill="#183FE1"/><path d="M 691.5 230.5 A 32.93 32.93 0 0 1 724.43 263.43 L 691.5 263.43L691.5 230.5" fill="#183FE1"/><rect x="0" y="263.43" width="65.86" height="65.86" fill="#FF3565"/><rect x="0" y="263.43" width="65.86" height="65.86" fill="#183FE1"/><rect x="65.86" y="263.43" width="65.86" height="65.86" fill="#183FE1"/><rect x="65.86" y="263.43" width="65.86" height="65.86" fill="#FF3565"/><rect x="131.71428571428572" y="263.42857142857144" width="65.85714285714286" height="65.85714285714286" fill="#ffffff"/><rect x="131.71" y="263.43" width="32.93" height="32.93" fill="#183FE1"/><polygon points="164.64000000000001,263.43 164.64000000000001,296.36 131.71,296.36" fill="#FF3565"/><rect x="164.64" y="263.43" width="32.93" height="32.93" fill="#FF3565"/><polygon points="164.64,263.43 197.57,263.43 164.64,296.36" fill="#FF3565"/><rect x="131.71" y="296.36" width="32.93" height="32.93" fill="#183FE1"/><polygon points="131.71,296.36 164.64000000000001,296.36 164.64000000000001,329.29" fill="#183FE1"/><rect x="164.64" y="296.36" width="32.93" height="32.93" fill="#FF3565"/><polygon points="164.64,296.36 197.57,329.29 164.64,329.29" fill="#183FE1"/><rect x="197.57142857142858" y="263.42857142857144" width="65.85714285714286" height="65.85714285714286" fill="#ffffff"/><rect x="197.57" y="263.43" width="32.93" height="32.93" fill="#FF3565"/><path d="M 197.57 296.36 A 32.93 32.93 0 0 1 230.5 263.43 L 230.5 271.6625 A 24.697499999999998 24.697499999999998 0 0 0 205.80249999999998 296.36" fill="#FF3565"/><rect x="230.5" y="263.43" width="32.93" height="32.93" fill="#183FE1"/><path d="M 230.5 263.43 A 32.93 32.93 0 0 1 263.43 296.36 L 255.1975 296.36 A 24.697499999999998 24.697499999999998 0 0 0 230.5 271.6625" fill="#FF3565"/><rect x="197.57" y="296.36" width="32.93" height="32.93" fill="#FF3565"/><path d="M 197.57 296.36 A 32.93 32.93 0 0 0 230.5 329.29 L 230.5 321.0575 A 24.697499999999998 24.697499999999998 0 0 1 205.80249999999998 296.36" fill="#183FE1"/><rect x="230.5" y="296.36" width="32.93" height="32.93" fill="#183FE1"/><path d="M 230.5 329.29 A 32.93 32.93 0 0 0 263.43 296.36 L 255.1975 296.36 A 24.697499999999998 24.697499999999998 0 0 1 230.5 321.0575" fill="#183FE1"/><rect x="263.42857142857144" y="263.42857142857144" width="65.85714285714286" height="65.85714285714286" fill="#ffffff"/><rect x="263.43" y="263.43" width="32.93" height="32.93" fill="#FF3565"/><path d="M 263.43 296.36 A 32.93 32.93 0 0 1 296.36 263.43 L 296.36 271.6625 A 24.697499999999998 24.697499999999998 0 0 0 271.6625 296.36" fill="#183FE1"/><rect x="296.36" y="263.43" width="32.93" height="32.93" fill="#183FE1"/><path d="M 296.36 263.43 A 32.93 32.93 0 0 1 329.29 296.36 L 321.0575 296.36 A 24.697499999999998 24.697499999999998 0 0 0 296.36 271.6625" fill="#183FE1"/><rect x="263.43" y="296.36" width="32.93" height="32.93" fill="#FF3565"/><path d="M 263.43 296.36 A 32.93 32.93 0 0 0 296.36 329.29 L 296.36 321.0575 A 24.697499999999998 24.697499999999998 0 0 1 271.6625 296.36" fill="#FF3565"/><rect x="296.36" y="296.36" width="32.93" height="32.93" fill="#FF3565"/><path d="M 296.36 329.29 A 32.93 32.93 0 0 0 329.29 296.36 L 321.0575 296.36 A 24.697499999999998 24.697499999999998 0 0 1 296.36 321.0575" fill="#183FE1"/><rect x="329.28571428571433" y="263.42857142857144" width="65.85714285714286" height="65.85714285714286" fill="#ffffff"/><rect x="329.29" y="263.43" width="32.93" height="32.93" fill="#183FE1"/><polygon points="362.22,263.43 362.22,296.36 329.29,296.36" fill="#183FE1"/><rect x="362.21" y="263.43" width="32.93" height="32.93" fill="#183FE1"/><polygon points="362.21,263.43 395.14,263.43 362.21,296.36" fill="#FF3565"/><rect x="329.29" y="296.36" width="32.93" height="32.93" fill="#183FE1"/><polygon points="329.29,296.36 362.22,296.36 362.22,329.29" fill="#183FE1"/><rect x="362.21" y="296.36" width="32.93" height="32.93" fill="#FF3565"/><polygon points="362.21,296.36 395.14,329.29 362.21,329.29" fill="#FF3565"/><rect x="395.14" y="263.43" width="65.86" height="65.86" fill="#183FE1"/><path d="M 395.14 263.43 A 65.86 65.86 0 0 0 461 329.29 L 461 263.43L395.14 263.43" fill="#183FE1"/><rect x="461" y="263.43" width="65.86" height="65.86" fill="#183FE1"/><rect x="461" y="263.43" width="65.86" height="65.86" fill="#183FE1"/><rect x="526.86" y="263.43" width="65.86" height="65.86" fill="#FF3565"/><path d="M 526.86 329.29 A 65.86 65.86 0 0 1  592.72 263.43 L 526.86 329.29 A 65.86 65.86 0 0 0 592.72 263.43" fill="#FF3565"/><rect x="592.71" y="263.43" width="65.86" height="65.86" fill="#FF3565"/><path d="M 592.71 263.43 A 65.86 65.86 0 0 1 658.57 329.29 L 592.71 329.29L592.71 263.43" fill="#183FE1"/><rect x="658.57" y="263.43" width="65.86" height="65.86" fill="#FF3565"/><rect x="658.57" y="263.43" width="65.86" height="65.86" fill="#183FE1"/><rect x="0" y="329.28571428571433" width="65.85714285714286" height="65.85714285714286" fill="#ffffff"/><rect x="0" y="329.29" width="32.93" height="32.93" fill="#183FE1"/><path d="M 0 362.22 A 32.93 32.93 0 0 1  32.93 329.29 L 32.93 362.22L0 362.22" fill="#FF3565"/><rect x="32.93" y="329.29" width="32.93" height="32.93" fill="#FF3565"/><path d="M 32.93 329.29 A 32.93 32.93 0 0 1 65.86 362.22 L 32.93 362.22L32.93 329.29" fill="#183FE1"/><rect x="0" y="362.21" width="32.93" height="32.93" fill="#FF3565"/><path d="M 0 362.21 A 32.93 32.93 0 0 0 32.93 395.14 L 32.93 362.21L0 362.21" fill="#183FE1"/><rect x="32.93" y="362.21" width="32.93" height="32.93" fill="#FF3565"/><path d="M 32.93 395.14 A 32.93 32.93 0 0 0 65.86 362.21 L 32.93 362.21L32.93 395.14" fill="#FF3565"/><rect x="65.85714285714286" y="329.28571428571433" width="65.85714285714286" height="65.85714285714286" fill="#ffffff"/><rect x="65.86" y="329.29" width="32.93" height="32.93" fill="#183FE1"/><path d="M 65.86 362.22 A 32.93 32.93 0 0 1 98.78999999999999 329.29 L 98.78999999999999 337.52250000000004 A 24.697499999999998 24.697499999999998 0 0 0 74.0925 362.22" fill="#183FE1"/><rect x="98.79" y="329.29" width="32.93" height="32.93" fill="#183FE1"/><path d="M 98.79 329.29 A 32.93 32.93 0 0 1 131.72 362.22 L 123.48750000000001 362.22 A 24.697499999999998 24.697499999999998 0 0 0 98.79 337.52250000000004" fill="#FF3565"/><rect x="65.86" y="362.21" width="32.93" height="32.93" fill="#183FE1"/><path d="M 65.86 362.21 A 32.93 32.93 0 0 0 98.78999999999999 395.14 L 98.78999999999999 386.90749999999997 A 24.697499999999998 24.697499999999998 0 0 1 74.0925 362.21" fill="#FF3565"/><rect x="98.79" y="362.21" width="32.93" height="32.93" fill="#183FE1"/><path d="M 98.79 395.14 A 32.93 32.93 0 0 0 131.72 362.21 L 123.48750000000001 362.21 A 24.697499999999998 24.697499999999998 0 0 1 98.79 386.90749999999997" fill="#183FE1"/><rect x="131.71428571428572" y="329.28571428571433" width="65.85714285714286" height="65.85714285714286" fill="#ffffff"/><rect x="131.71" y="329.29" width="32.93" height="32.93" fill="#183FE1"/><path d="M 131.71 329.29 A 32.93 32.93 0 0 1 164.64000000000001 362.22 L 131.71 362.22L131.71 329.29" fill="#183FE1"/><rect x="164.64" y="329.29" width="32.93" height="32.93" fill="#183FE1"/><path d="M 164.64 362.22 A 32.93 32.93 0 0 1  197.57 329.29 L 197.57 362.22L164.64 362.22" fill="#183FE1"/><rect x="131.71" y="362.21" width="32.93" height="32.93" fill="#183FE1"/><path d="M 131.71 395.14 A 32.93 32.93 0 0 0 164.64000000000001 362.21 L 131.71 362.21L131.71 395.14" fill="#183FE1"/><rect x="164.64" y="362.21" width="32.93" height="32.93" fill="#FF3565"/><path d="M 164.64 362.21 A 32.93 32.93 0 0 0 197.57 395.14 L 197.57 362.21L164.64 362.21" fill="#183FE1"/><rect x="197.57142857142858" y="329.28571428571433" width="65.85714285714286" height="65.85714285714286" fill="#ffffff"/><rect x="197.57" y="329.29" width="32.93" height="32.93" fill="#183FE1"/><polygon points="230.5,329.29 230.5,362.22 197.57,362.22" fill="#FF3565"/><rect x="230.5" y="329.29" width="32.93" height="32.93" fill="#183FE1"/><polygon points="230.5,329.29 263.43,362.22 230.5,362.22" fill="#FF3565"/><rect x="197.57" y="362.21" width="32.93" height="32.93" fill="#FF3565"/><polygon points="197.57,362.21 230.5,362.21 197.57,395.14" fill="#FF3565"/><rect x="230.5" y="362.21" width="32.93" height="32.93" fill="#FF3565"/><polygon points="230.5,362.21 263.43,362.21 263.43,395.14" fill="#FF3565"/><rect x="263.42857142857144" y="329.28571428571433" width="65.85714285714286" height="65.85714285714286" fill="#ffffff"/><rect x="263.43" y="329.29" width="32.93" height="32.93" fill="#183FE1"/><path d="M 263.43 329.29 A 32.93 32.93 0 0 1 296.36 362.22 L 263.43 362.22L263.43 329.29" fill="#183FE1"/><rect x="296.36" y="329.29" width="32.93" height="32.93" fill="#183FE1"/><path d="M 296.36 362.22 A 32.93 32.93 0 0 1  329.29 329.29 L 329.29 362.22L296.36 362.22" fill="#183FE1"/><rect x="263.43" y="362.21" width="32.93" height="32.93" fill="#183FE1"/><path d="M 263.43 395.14 A 32.93 32.93 0 0 0 296.36 362.21 L 263.43 362.21L263.43 395.14" fill="#FF3565"/><rect x="296.36" y="362.21" width="32.93" height="32.93" fill="#183FE1"/><path d="M 296.36 362.21 A 32.93 32.93 0 0 0 329.29 395.14 L 329.29 362.21L296.36 362.21" fill="#183FE1"/><rect x="329.29" y="329.29" width="65.86" height="65.86" fill="#183FE1"/><rect x="329.29" y="329.29" width="65.86" height="65.86" fill="#FF3565"/><rect x="395.14" y="329.29" width="65.86" height="65.86" fill="#183FE1"/><path d="M 395.14 329.29 A 65.86 65.86 0 0 1  461 395.15000000000003 L 395.14 329.29 A 65.86 65.86 0 0 0 461 395.15000000000003" fill="#FF3565"/><rect x="461" y="329.29" width="65.86" height="65.86" fill="#183FE1"/><path d="M 461 329.29 A 65.86 65.86 0 0 0 526.86 395.15000000000003 L 526.86 329.29L461 329.29" fill="#FF3565"/><rect x="526.86" y="329.29" width="65.86" height="65.86" fill="#183FE1"/><polygon points="592.72,329.29 592.72,395.15000000000003 526.86,395.15000000000003" fill="#FF3565"/><rect x="592.7142857142858" y="329.28571428571433" width="65.85714285714286" height="65.85714285714286" fill="#ffffff"/><rect x="592.71" y="329.29" width="32.93" height="32.93" fill="#183FE1"/><circle cx="609.1750000000001" cy="345.755" r="16.465" fill="#183FE1"/><rect x="625.64" y="329.29" width="32.93" height="32.93" fill="#183FE1"/><rect x="625.64" y="329.29" width="32.93" height="32.93" fill="#FF3565"/><rect x="592.71" y="362.21" width="32.93" height="32.93" fill="#FF3565"/><circle cx="609.1750000000001" cy="378.67499999999995" r="16.465" fill="#FF3565"/><rect x="625.64" y="362.21" width="32.93" height="32.93" fill="#183FE1"/><rect x="625.64" y="362.21" width="32.93" height="32.93" fill="#FF3565"/><rect x="658.5714285714287" y="329.28571428571433" width="65.85714285714286" height="65.85714285714286" fill="#ffffff"/><rect x="658.57" y="329.29" width="32.93" height="32.93" fill="#FF3565"/><polygon points="691.5,329.29 691.5,362.22 658.57,362.22" fill="#183FE1"/><rect x="691.5" y="329.29" width="32.93" height="32.93" fill="#183FE1"/><polygon points="691.5,329.29 724.43,362.22 691.5,362.22" fill="#183FE1"/><rect x="658.57" y="362.21" width="32.93" height="32.93" fill="#FF3565"/><polygon points="658.57,362.21 691.5,362.21 691.5,395.14" fill="#FF3565"/><rect x="691.5" y="362.21" width="32.93" height="32.93" fill="#FF3565"/><polygon points="691.5,362.21 724.43,362.21 691.5,395.14" fill="#FF3565"/><rect x="0" y="395.14" width="65.86" height="65.86" fill="#183FE1"/><rect x="0" y="395.14" width="65.86" height="65.86" fill="#183FE1"/><rect x="65.86" y="395.14" width="65.86" height="65.86" fill="#FF3565"/><path d="M 65.86 395.14 A 65.86 65.86 0 0 0 131.72 461 L 131.72 395.14L65.86 395.14" fill="#FF3565"/><rect x="131.71428571428572" y="395.14285714285717" width="65.85714285714286" height="65.85714285714286" fill="#ffffff"/><rect x="131.71" y="395.14" width="32.93" height="32.93" fill="#183FE1"/><path d="M 131.71 428.07 A 32.93 32.93 0 0 1 164.64000000000001 395.14 L 164.64000000000001 403.3725 A 24.697499999999998 24.697499999999998 0 0 0 139.9425 428.07" fill="#183FE1"/><rect x="164.64" y="395.14" width="32.93" height="32.93" fill="#183FE1"/><path d="M 164.64 395.14 A 32.93 32.93 0 0 1 197.57 428.07 L 189.33749999999998 428.07 A 24.697499999999998 24.697499999999998 0 0 0 164.64 403.3725" fill="#183FE1"/><rect x="131.71" y="428.07" width="32.93" height="32.93" fill="#183FE1"/><path d="M 131.71 428.07 A 32.93 32.93 0 0 0 164.64000000000001 461 L 164.64000000000001 452.7675 A 24.697499999999998 24.697499999999998 0 0 1 139.9425 428.07" fill="#FF3565"/><rect x="164.64" y="428.07" width="32.93" height="32.93" fill="#183FE1"/><path d="M 164.64 461 A 32.93 32.93 0 0 0 197.57 428.07 L 189.33749999999998 428.07 A 24.697499999999998 24.697499999999998 0 0 1 164.64 452.7675" fill="#FF3565"/><rect x="197.57" y="395.14" width="65.86" height="65.86" fill="#183FE1"/><polygon points="197.57,395.14 263.43,395.14 197.57,461" fill="#183FE1"/><rect x="263.43" y="395.14" width="65.86" height="65.86" fill="#183FE1"/><path d="M 263.43 395.14 A 65.86 65.86 0 0 1 329.29 461 L 263.43 461L263.43 395.14" fill="#183FE1"/><rect x="329.29" y="395.14" width="65.86" height="65.86" fill="#FF3565"/><polygon points="329.29,395.14 395.15000000000003,395.14 395.15000000000003,461" fill="#183FE1"/><rect x="395.14" y="395.14" width="65.86" height="65.86" fill="#183FE1"/><polygon points="395.14,395.14 461,395.14 395.14,461" fill="#FF3565"/><rect x="461" y="395.14" width="65.86" height="65.86" fill="#FF3565"/><rect x="461" y="395.14" width="65.86" height="65.86" fill="#FF3565"/><rect x="526.86" y="395.14" width="65.86" height="65.86" fill="#FF3565"/><path d="M 526.86 461 A 65.86 65.86 0 0 0 592.72 395.14 L 526.86 395.14L526.86 461" fill="#FF3565"/><rect x="592.71" y="395.14" width="65.86" height="65.86" fill="#183FE1"/><rect x="592.71" y="395.14" width="65.86" height="65.86" fill="#183FE1"/><rect x="658.5714285714287" y="395.14285714285717" width="65.85714285714286" height="65.85714285714286" fill="#ffffff"/><rect x="658.57" y="395.14" width="32.93" height="32.93" fill="#FF3565"/><polygon points="691.5,395.14 691.5,428.07 658.57,428.07" fill="#FF3565"/><rect x="691.5" y="395.14" width="32.93" height="32.93" fill="#FF3565"/><polygon points="691.5,395.14 724.43,428.07 691.5,428.07" fill="#183FE1"/><rect x="658.57" y="428.07" width="32.93" height="32.93" fill="#183FE1"/><polygon points="658.57,428.07 691.5,428.07 691.5,461" fill="#183FE1"/><rect x="691.5" y="428.07" width="32.93" height="32.93" fill="#183FE1"/><polygon points="691.5,428.07 724.43,428.07 691.5,461" fill="#183FE1"/></g></svg>