<?xml version="1.0" standalone="no"?><svg xmlns:xlink="http://www.w3.org/1999/xlink" xmlns="http://www.w3.org/2000/svg" viewBox="0 0 1000 636.3694089908921" preserveAspectRatio="xMaxYMax slice"><g transform="scale(1.3804108654900045)"><rect x="0" y="0" width="724.4285714285714" height="461" fill="#ffffff"/><rect x="0" y="0" width="65.85714285714286" height="65.85714285714286" fill="#ffffff"/><path d="M 0 65.86 A 32.93 32.93 0 0 1  32.93 32.93 L 0 65.86 A 32.93 32.93 0 0 0 32.93 32.93" fill="#ffebef"/><path d="M 32.93 65.86 A 32.93 32.93 0 0 1  65.86 32.93 L 32.93 65.86 A 32.93 32.93 0 0 0 65.86 32.93" fill="#ffd0db"/><path d="M 65.86 65.86 A 65.86 65.86 0 0 1  131.72 0 L 65.86 65.86 A 65.86 65.86 0 0 0 131.72 0" fill="#ffa5bb"/><path d="M 197.57 65.86 A 65.86 65.86 0 0 1  263.43 0 L 197.57 65.86 A 65.86 65.86 0 0 0 263.43 0" fill="#ff5a81"/><path d="M 395.14 65.86 A 65.86 65.86 0 0 1  461 0 L 395.14 65.86 A 65.86 65.86 0 0 0 461 0" fill="#ff8aa6"/><path d="M 461 0 A 65.86 65.86 0 0 1  526.86 65.86 L 461 0 A 65.86 65.86 0 0 0 526.86 65.86" fill="#cdd5f8"/><path d="M 526.86 65.86 A 65.86 65.86 0 0 1  592.72 0 L 526.86 65.86 A 65.86 65.86 0 0 0 592.72 0" fill="#fefeff"/><rect x="658.5714285714287" y="0" width="65.85714285714286" height="65.85714285714286" fill="#ffffff"/><path d="M 658.57 0 A 32.93 32.93 0 0 1  691.5 32.93 L 658.57 0 A 32.93 32.93 0 0 0 691.5 32.93" fill="#ff9fb6"/><path d="M 691.5 0 A 32.93 32.93 0 0 1  724.43 32.93 L 691.5 0 A 32.93 32.93 0 0 0 724.43 32.93" fill="#ffd8e1"/><rect x="65.85714285714286" y="65.85714285714286" width="65.85714285714286" height="65.85714285714286" fill="#ffffff"/><path d="M 98.79 98.78999999999999 A 32.93 32.93 0 0 1  131.72 65.86 L 98.79 98.78999999999999 A 32.93 32.93 0 0 0 131.72 65.86" fill="#e5e9fc"/><path d="M 98.79 131.72 A 32.93 32.93 0 0 1  131.72 98.79 L 98.79 131.72 A 32.93 32.93 0 0 0 131.72 98.79" fill="#5a76ea"/><rect x="197.57142857142858" y="65.85714285714286" width="65.85714285714286" height="65.85714285714286" fill="#ffffff"/><path d="M 197.57 65.86 A 32.93 32.93 0 0 1  230.5 98.78999999999999 L 197.57 65.86 A 32.93 32.93 0 0 0 230.5 98.78999999999999" fill="#f7f8fe"/><path d="M 230.5 98.79 A 32.93 32.93 0 0 1  263.43 131.72 L 230.5 98.79 A 32.93 32.93 0 0 0 263.43 131.72" fill="#bbc6f6"/><rect x="658.5714285714287" y="65.85714285714286" width="65.85714285714286" height="65.85714285714286" fill="#ffffff"/><rect x="0" y="131.71428571428572" width="65.85714285714286" height="65.85714285714286" fill="#ffffff"/><path d="M 32.93 131.71 A 32.93 32.93 0 0 1  65.86 164.64000000000001 L 32.93 131.71 A 32.93 32.93 0 0 0 65.86 164.64000000000001" fill="#3557e5"/><path d="M 32.93 164.64 A 32.93 32.93 0 0 1  65.86 197.57 L 32.93 164.64 A 32.93 32.93 0 0 0 65.86 197.57" fill="#ffcfda"/><rect x="65.85714285714286" y="131.71428571428572" width="65.85714285714286" height="65.85714285714286" fill="#ffffff"/><path d="M 98.79 164.64000000000001 A 32.93 32.93 0 0 1  131.72 131.71 L 98.79 164.64000000000001 A 32.93 32.93 0 0 0 131.72 131.71" fill="#ffe4ea"/><path d="M 98.79 197.57 A 32.93 32.93 0 0 1  131.72 164.64 L 98.79 197.57 A 32.93 32.93 0 0 0 131.72 164.64" fill="#e3e8fb"/><rect x="131.71428571428572" y="131.71428571428572" width="65.85714285714286" height="65.85714285714286" fill="#ffffff"/><path d="M 164.64 164.64000000000001 A 32.93 32.93 0 0 1  197.57 131.71 L 164.64 164.64000000000001 A 32.93 32.93 0 0 0 197.57 131.71" fill="#7088ec"/><path d="M 131.71 164.64 A 32.93 32.93 0 0 1  164.64000000000001 197.57 L 131.71 164.64 A 32.93 32.93 0 0 0 164.64000000000001 197.57" fill="#ff95ae"/><rect x="329.28571428571433" y="131.71428571428572" width="65.85714285714286" height="65.85714285714286" fill="#ffffff"/><path d="M 329.29 131.71 A 32.93 32.93 0 0 1  362.22 164.64000000000001 L 329.29 131.71 A 32.93 32.93 0 0 0 362.22 164.64000000000001" fill="#728aed"/><path d="M 658.57 197.57 A 65.86 65.86 0 0 1  724.4300000000001 131.71 L 658.57 197.57 A 65.86 65.86 0 0 0 724.4300000000001 131.71" fill="#ff507a"/><path d="M 461 197.57 A 65.86 65.86 0 0 1  526.86 263.43 L 461 197.57 A 65.86 65.86 0 0 0 526.86 263.43" fill="#ffe1e8"/><rect x="131.71428571428572" y="263.42857142857144" width="65.85714285714286" height="65.85714285714286" fill="#ffffff"/><path d="M 164.64 263.43 A 32.93 32.93 0 0 1  197.57 296.36 L 164.64 263.43 A 32.93 32.93 0 0 0 197.57 296.36" fill="#ffdbe3"/><path d="M 131.71 296.36 A 32.93 32.93 0 0 1  164.64000000000001 329.29 L 131.71 296.36 A 32.93 32.93 0 0 0 164.64000000000001 329.29" fill="#ffe3ea"/><path d="M 263.43 329.29 A 65.86 65.86 0 0 1  329.29 263.43 L 263.43 329.29 A 65.86 65.86 0 0 0 329.29 263.43" fill="#bfcaf7"/><rect x="395.14285714285717" y="263.42857142857144" width="65.85714285714286" height="65.85714285714286" fill="#ffffff"/><path d="M 395.14 296.36 A 32.93 32.93 0 0 1  428.07 263.43 L 395.14 296.36 A 32.93 32.93 0 0 0 428.07 263.43" fill="#ffa6bb"/><path d="M 428.07 296.36 A 32.93 32.93 0 0 1  461 329.29 L 428.07 296.36 A 32.93 32.93 0 0 0 461 329.29" fill="#ffdde5"/><rect x="461" y="263.42857142857144" width="65.85714285714286" height="65.85714285714286" fill="#ffffff"/><path d="M 461 263.43 A 32.93 32.93 0 0 1  493.93 296.36 L 461 263.43 A 32.93 32.93 0 0 0 493.93 296.36" fill="#ff416e"/><path d="M 592.71 263.43 A 65.86 65.86 0 0 1  658.57 329.29 L 592.71 263.43 A 65.86 65.86 0 0 0 658.57 329.29" fill="#ff9fb6"/><path d="M 197.57 395.15000000000003 A 65.86 65.86 0 0 1  263.43 329.29 L 197.57 395.15000000000003 A 65.86 65.86 0 0 0 263.43 329.29" fill="#ff6086"/><rect x="395.14285714285717" y="329.28571428571433" width="65.85714285714286" height="65.85714285714286" fill="#ffffff"/><path d="M 395.14 329.29 A 32.93 32.93 0 0 1  428.07 362.22 L 395.14 329.29 A 32.93 32.93 0 0 0 428.07 362.22" fill="#ff527b"/><path d="M 428.07 329.29 A 32.93 32.93 0 0 1  461 362.22 L 428.07 329.29 A 32.93 32.93 0 0 0 461 362.22" fill="#eceffd"/><path d="M 395.14 395.14 A 32.93 32.93 0 0 1  428.07 362.21 L 395.14 395.14 A 32.93 32.93 0 0 0 428.07 362.21" fill="#a3b3f3"/><path d="M 428.07 395.14 A 32.93 32.93 0 0 1  461 362.21 L 428.07 395.14 A 32.93 32.93 0 0 0 461 362.21" fill="#647eeb"/><path d="M 0 395.14 A 65.86 65.86 0 0 1  65.86 461 L 0 395.14 A 65.86 65.86 0 0 0 65.86 461" fill="#8196ef"/><rect x="592.7142857142858" y="395.14285714285717" width="65.85714285714286" height="65.85714285714286" fill="#ffffff"/><path d="M 625.64 428.07 A 32.93 32.93 0 0 1  658.5699999999999 395.14 L 625.64 428.07 A 32.93 32.93 0 0 0 658.5699999999999 395.14" fill="#ff90ab"/><path d="M 625.64 428.07 A 32.93 32.93 0 0 1  658.5699999999999 461 L 625.64 428.07 A 32.93 32.93 0 0 0 658.5699999999999 461" fill="#ff96af"/><rect x="658.5714285714287" y="395.14285714285717" width="65.85714285714286" height="65.85714285714286" fill="#ffffff"/><path d="M 658.57 428.07 A 32.93 32.93 0 0 1  691.5 395.14 L 658.57 428.07 A 32.93 32.93 0 0 0 691.5 395.14" fill="#fffdfe"/></g></svg>